<svg width="32" height="32" viewBox="0 0 32 32" fill="none" xmlns="http://www.w3.org/2000/svg">
<mask id="mask0_1782_545" style="mask-type:luminance" maskUnits="userSpaceOnUse" x="1" y="1" width="30" height="30">
<path d="M24.4567 10.1138C25.3063 11.3319 25.8815 12.7199 26.1427 14.1818H29.3327V17.8178H26.1427C25.8815 19.2798 25.3063 20.6677 24.4567 21.8858L26.7133 24.1425L24.142 26.7138L21.8853 24.4572C20.6673 25.3068 19.2793 25.882 17.8173 26.1432V29.3332H14.1813V26.1432C12.7194 25.882 11.3314 25.3068 10.1133 24.4572L7.85668 26.7138L5.28535 24.1425L7.54202 21.8858C6.6924 20.6677 6.11717 19.2798 5.85602 17.8178H2.66602V14.1818H5.85602C6.11717 12.7199 6.6924 11.3319 7.54202 10.1138L5.28535 7.85717L7.85668 5.28584L10.1133 7.5425C11.3314 6.69289 12.7194 6.11766 14.1813 5.8565V2.6665H17.8173V5.8565C19.2793 6.11766 20.6673 6.69289 21.8853 7.5425L24.142 5.28584L26.7133 7.85717L24.4567 10.1138Z" fill="white" stroke="white" stroke-width="2" stroke-linejoin="round"/>
<path d="M15.9993 19.3332C16.8834 19.3332 17.7312 18.982 18.3564 18.3569C18.9815 17.7317 19.3327 16.8839 19.3327 15.9998C19.3327 15.1158 18.9815 14.2679 18.3564 13.6428C17.7312 13.0177 16.8834 12.6665 15.9993 12.6665C15.1153 12.6665 14.2674 13.0177 13.6423 13.6428C13.0172 14.2679 12.666 15.1158 12.666 15.9998C12.666 16.8839 13.0172 17.7317 13.6423 18.3569C14.2674 18.982 15.1153 19.3332 15.9993 19.3332Z" fill="black" stroke="black" stroke-width="2" stroke-linejoin="round"/>
</mask>
<g mask="url(#mask0_1782_545)">
<path d="M0 0H32V32H0V0Z" fill="#A52A2A"/>
</g>
</svg>
